<?xml version="1.0" encoding="UTF-8"?>
<svg width="12px" height="7px" viewBox="0 0 12 7" version="1.1" xmlns="http://www.w3.org/2000/svg" xmlns:xlink="http://www.w3.org/1999/xlink">
    <!-- Generator: Sketch 47.1 (45422) - http://www.bohemiancoding.com/sketch -->
    <title>Down Copy 2</title>
    <desc>Created with Sketch.</desc>
    <defs></defs>
    <g id="Basic-Flow" stroke="none" stroke-width="1" fill="none" fill-rule="evenodd">
        <g id="Bundles-Page" transform="translate(-301.000000, -1103.000000)" fill="#4A4A4A">
            <g id="Address-check" transform="translate(0.000000, 885.000000)">
                <g id="Address-Check" transform="translate(52.000000, 202.000000)">
                    <path d="M249.320584,16.3306037 C249.747726,15.9048281 250.438985,15.9057388 250.86476,16.3319698 L254.764592,20.2377209 L258.672164,16.3210408 C259.098395,15.8938991 259.789654,15.8929883 260.215885,16.3183086 C260.642572,16.7449949 260.643938,17.4357987 260.218162,17.8633958 L255.848384,22.244103 C255.567418,22.5268909 255.173063,22.6890044 254.766413,22.6890044 C254.359308,22.6894597 253.965409,22.5278016 253.683532,22.2459245 L249.319218,17.8752356 C249.105647,17.6621201 249,17.3829752 249,17.103375 C249,16.8237748 249.107013,16.5441745 249.320584,16.3306037 Z" id="Down-Copy-2"></path>
                </g>
            </g>
        </g>
    </g>
</svg>