<?xml version="1.0" encoding="UTF-8"?>
<svg width="13px" height="13px" viewBox="0 0 13 13" version="1.1" xmlns="http://www.w3.org/2000/svg" xmlns:xlink="http://www.w3.org/1999/xlink">
    <!-- Generator: Sketch 47.1 (45422) - http://www.bohemiancoding.com/sketch -->
    <title>Close</title>
    <desc>Created with Sketch.</desc>
    <defs></defs>
    <g id="Basic-Flow" stroke="none" stroke-width="1" fill="none" fill-rule="evenodd">
        <g id="Menu" transform="translate(-20.000000, -21.000000)" fill="#000000">
            <path d="M32.6704619,32.0795 C33.1097127,32.51875 33.1097127,33.23125 32.6704619,33.6705 C32.4507114,33.89025 32.1629609,34 31.8749603,34 C31.5869598,34 31.2992092,33.89025 31.0794588,33.6705 L26.49995,29.091 L21.9204412,33.6705 C21.7006908,33.89025 21.4129402,34 21.1249397,34 C20.8369391,34 20.5491886,33.89025 20.3294381,33.6705 C19.8901873,33.23125 19.8901873,32.51875 20.3294381,32.0795 L24.9089469,27.5 L20.3294381,22.9205 C19.8901873,22.48125 19.8901873,21.76875 20.3294381,21.3295 C20.768939,20.89025 21.4809403,20.89025 21.9204412,21.3295 L26.49995,25.909 L31.0794588,21.3295 C31.5189597,20.89025 32.230961,20.89025 32.6704619,21.3295 C33.1097127,21.76875 33.1097127,22.48125 32.6704619,22.9205 L28.0909531,27.5 L32.6704619,32.0795 Z" id="Close"></path>
        </g>
    </g>
</svg>